<mxfile host="app.diagrams.net" agent="Mozilla/5.0 (Windows NT 10.0; Win64; x64) AppleWebKit/537.36 (KHTML, like Gecko) Chrome/131.0.0.0 Safari/537.36" version="25.0.3">
  <diagram name="Page-1" id="2YBvvXClWsGukQMizWep">
    <mxGraphModel dx="429" dy="227" grid="1" gridSize="10" guides="1" tooltips="1" connect="1" arrows="1" fold="1" page="1" pageScale="1" pageWidth="850" pageHeight="1100" math="0" shadow="0">
      <root>
        <mxCell id="0" />
        <mxCell id="1" parent="0" />
        <mxCell id="d7hmKrcBPxE3zNoRSPeH-1" value="" style="rounded=0;whiteSpace=wrap;html=1;fillStyle=cross-hatch;gradientColor=none;gradientDirection=radial;fillColor=none;" parent="1" vertex="1">
          <mxGeometry x="275" y="156" width="675" height="210" as="geometry" />
        </mxCell>
        <mxCell id="d7hmKrcBPxE3zNoRSPeH-2" value="Utente" style="shape=umlLifeline;perimeter=lifelinePerimeter;whiteSpace=wrap;html=1;container=0;dropTarget=0;collapsible=0;recursiveResize=0;outlineConnect=0;portConstraint=eastwest;newEdgeStyle={&quot;edgeStyle&quot;:&quot;elbowEdgeStyle&quot;,&quot;elbow&quot;:&quot;vertical&quot;,&quot;curved&quot;:0,&quot;rounded&quot;:0};" parent="1" vertex="1">
          <mxGeometry x="275" y="60" width="100" height="340" as="geometry" />
        </mxCell>
        <mxCell id="d7hmKrcBPxE3zNoRSPeH-3" value="" style="html=1;points=[];perimeter=orthogonalPerimeter;outlineConnect=0;targetShapes=umlLifeline;portConstraint=eastwest;newEdgeStyle={&quot;edgeStyle&quot;:&quot;elbowEdgeStyle&quot;,&quot;elbow&quot;:&quot;vertical&quot;,&quot;curved&quot;:0,&quot;rounded&quot;:0};" parent="d7hmKrcBPxE3zNoRSPeH-2" vertex="1">
          <mxGeometry x="45" y="70" width="10" height="220" as="geometry" />
        </mxCell>
        <mxCell id="d7hmKrcBPxE3zNoRSPeH-4" value="Esecuzione Applicazione" style="html=1;verticalAlign=bottom;startArrow=oval;endArrow=block;startSize=8;edgeStyle=elbowEdgeStyle;elbow=vertical;curved=0;rounded=0;" parent="d7hmKrcBPxE3zNoRSPeH-2" target="d7hmKrcBPxE3zNoRSPeH-3" edge="1">
          <mxGeometry x="-0.0303" relative="1" as="geometry">
            <mxPoint x="-120" y="70" as="sourcePoint" />
            <Array as="points">
              <mxPoint x="-120" y="70" />
            </Array>
            <mxPoint as="offset" />
          </mxGeometry>
        </mxCell>
        <mxCell id="d7hmKrcBPxE3zNoRSPeH-5" value="Elenco Telefonico" style="shape=umlLifeline;perimeter=lifelinePerimeter;whiteSpace=wrap;html=1;container=0;dropTarget=0;collapsible=0;recursiveResize=0;outlineConnect=0;portConstraint=eastwest;newEdgeStyle={&quot;edgeStyle&quot;:&quot;elbowEdgeStyle&quot;,&quot;elbow&quot;:&quot;vertical&quot;,&quot;curved&quot;:0,&quot;rounded&quot;:0};" parent="1" vertex="1">
          <mxGeometry x="455" y="60" width="100" height="340" as="geometry" />
        </mxCell>
        <mxCell id="d7hmKrcBPxE3zNoRSPeH-6" value="" style="html=1;points=[];perimeter=orthogonalPerimeter;outlineConnect=0;targetShapes=umlLifeline;portConstraint=eastwest;newEdgeStyle={&quot;edgeStyle&quot;:&quot;elbowEdgeStyle&quot;,&quot;elbow&quot;:&quot;vertical&quot;,&quot;curved&quot;:0,&quot;rounded&quot;:0};" parent="d7hmKrcBPxE3zNoRSPeH-5" vertex="1">
          <mxGeometry x="45" y="80" width="10" height="110" as="geometry" />
        </mxCell>
        <mxCell id="d7hmKrcBPxE3zNoRSPeH-7" value="eliminaContatto(Contatto c)" style="html=1;verticalAlign=bottom;endArrow=block;edgeStyle=elbowEdgeStyle;elbow=horizontal;curved=0;rounded=0;" parent="1" source="d7hmKrcBPxE3zNoRSPeH-3" target="d7hmKrcBPxE3zNoRSPeH-6" edge="1">
          <mxGeometry relative="1" as="geometry">
            <mxPoint x="430" y="150" as="sourcePoint" />
            <Array as="points">
              <mxPoint x="415" y="140" />
            </Array>
          </mxGeometry>
        </mxCell>
        <mxCell id="d7hmKrcBPxE3zNoRSPeH-8" value="Contatto" style="shape=umlLifeline;perimeter=lifelinePerimeter;whiteSpace=wrap;html=1;container=0;dropTarget=0;collapsible=0;recursiveResize=0;outlineConnect=0;portConstraint=eastwest;newEdgeStyle={&quot;edgeStyle&quot;:&quot;elbowEdgeStyle&quot;,&quot;elbow&quot;:&quot;vertical&quot;,&quot;curved&quot;:0,&quot;rounded&quot;:0};" parent="1" vertex="1">
          <mxGeometry x="660" y="60" width="100" height="330" as="geometry" />
        </mxCell>
        <mxCell id="d7hmKrcBPxE3zNoRSPeH-9" value="" style="html=1;points=[];perimeter=orthogonalPerimeter;outlineConnect=0;targetShapes=umlLifeline;portConstraint=eastwest;newEdgeStyle={&quot;edgeStyle&quot;:&quot;elbowEdgeStyle&quot;,&quot;elbow&quot;:&quot;vertical&quot;,&quot;curved&quot;:0,&quot;rounded&quot;:0};" parent="d7hmKrcBPxE3zNoRSPeH-8" vertex="1">
          <mxGeometry x="45" y="70" width="10" height="100" as="geometry" />
        </mxCell>
        <mxCell id="d7hmKrcBPxE3zNoRSPeH-37" value="" style="shape=umlDestroy;whiteSpace=wrap;html=1;strokeWidth=3;targetShapes=umlLifeline;" parent="d7hmKrcBPxE3zNoRSPeH-8" vertex="1">
          <mxGeometry x="36.25" y="160" width="27.5" height="31" as="geometry" />
        </mxCell>
        <mxCell id="d7hmKrcBPxE3zNoRSPeH-39" value="" style="html=1;points=[];perimeter=orthogonalPerimeter;outlineConnect=0;targetShapes=umlLifeline;portConstraint=eastwest;newEdgeStyle={&quot;edgeStyle&quot;:&quot;elbowEdgeStyle&quot;,&quot;elbow&quot;:&quot;vertical&quot;,&quot;curved&quot;:0,&quot;rounded&quot;:0};" parent="d7hmKrcBPxE3zNoRSPeH-8" vertex="1">
          <mxGeometry x="45" y="210" width="10" height="60" as="geometry" />
        </mxCell>
        <mxCell id="d7hmKrcBPxE3zNoRSPeH-16" value="&lt;font size=&quot;1&quot;&gt;remove(Contatto c)&lt;/font&gt;" style="html=1;verticalAlign=bottom;endArrow=block;edgeStyle=elbowEdgeStyle;elbow=horizontal;curved=0;rounded=0;" parent="1" source="d7hmKrcBPxE3zNoRSPeH-6" target="d7hmKrcBPxE3zNoRSPeH-9" edge="1">
          <mxGeometry x="0.0769" relative="1" as="geometry">
            <mxPoint x="515" y="150" as="sourcePoint" />
            <Array as="points">
              <mxPoint x="600" y="150" />
            </Array>
            <mxPoint x="685" y="150" as="targetPoint" />
            <mxPoint as="offset" />
          </mxGeometry>
        </mxCell>
        <mxCell id="d7hmKrcBPxE3zNoRSPeH-17" value="alt" style="rounded=0;whiteSpace=wrap;html=1;fillColor=none;" parent="1" vertex="1">
          <mxGeometry x="275" y="156" width="40" height="20" as="geometry" />
        </mxCell>
        <mxCell id="d7hmKrcBPxE3zNoRSPeH-18" value="&lt;span style=&quot;font-size: 6px;&quot;&gt;[cofermaButtonPressed == true]&lt;/span&gt;" style="text;html=1;align=center;verticalAlign=middle;whiteSpace=wrap;rounded=0;" parent="1" vertex="1">
          <mxGeometry x="695" y="153" width="130" height="10" as="geometry" />
        </mxCell>
        <mxCell id="d7hmKrcBPxE3zNoRSPeH-19" value="" style="endArrow=none;dashed=1;html=1;rounded=0;exitX=0;exitY=0.525;exitDx=0;exitDy=0;exitPerimeter=0;" parent="1" edge="1">
          <mxGeometry width="50" height="50" relative="1" as="geometry">
            <mxPoint x="275" y="259.25" as="sourcePoint" />
            <mxPoint x="950" y="260" as="targetPoint" />
            <Array as="points" />
          </mxGeometry>
        </mxCell>
        <mxCell id="d7hmKrcBPxE3zNoRSPeH-20" value="&lt;font style=&quot;font-size: 7px;&quot;&gt;[annullaButtonPressed == true]&lt;/font&gt;" style="text;html=1;align=center;verticalAlign=middle;whiteSpace=wrap;rounded=0;rotation=0;" parent="1" vertex="1">
          <mxGeometry x="716" y="264" width="100" as="geometry" />
        </mxCell>
        <mxCell id="d7hmKrcBPxE3zNoRSPeH-21" value="return" style="html=1;verticalAlign=bottom;endArrow=open;dashed=1;endSize=8;edgeStyle=elbowEdgeStyle;elbow=vertical;curved=0;rounded=0;" parent="1" edge="1">
          <mxGeometry relative="1" as="geometry">
            <mxPoint x="330" y="244.76999999999998" as="targetPoint" />
            <Array as="points">
              <mxPoint x="470" y="244.77" />
              <mxPoint x="435" y="244.77" />
            </Array>
            <mxPoint x="500" y="245" as="sourcePoint" />
          </mxGeometry>
        </mxCell>
        <mxCell id="d7hmKrcBPxE3zNoRSPeH-24" value="&lt;font style=&quot;font-size: 8px;&quot;&gt;GestioneFileEsternoContatti&lt;/font&gt;" style="shape=umlLifeline;perimeter=lifelinePerimeter;whiteSpace=wrap;html=1;container=0;dropTarget=0;collapsible=0;recursiveResize=0;outlineConnect=0;portConstraint=eastwest;newEdgeStyle={&quot;edgeStyle&quot;:&quot;elbowEdgeStyle&quot;,&quot;elbow&quot;:&quot;vertical&quot;,&quot;curved&quot;:0,&quot;rounded&quot;:0};" parent="1" vertex="1">
          <mxGeometry x="875" y="60" width="100" height="330" as="geometry" />
        </mxCell>
        <mxCell id="d7hmKrcBPxE3zNoRSPeH-25" value="" style="html=1;points=[];perimeter=orthogonalPerimeter;outlineConnect=0;targetShapes=umlLifeline;portConstraint=eastwest;newEdgeStyle={&quot;edgeStyle&quot;:&quot;elbowEdgeStyle&quot;,&quot;elbow&quot;:&quot;vertical&quot;,&quot;curved&quot;:0,&quot;rounded&quot;:0};" parent="d7hmKrcBPxE3zNoRSPeH-24" vertex="1">
          <mxGeometry x="45" y="110" width="10" height="60" as="geometry" />
        </mxCell>
        <mxCell id="d7hmKrcBPxE3zNoRSPeH-27" value="&lt;font style=&quot;font-size: 9px;&quot;&gt;salvaContattiInfoCSV()&lt;/font&gt;" style="html=1;verticalAlign=bottom;endArrow=block;edgeStyle=elbowEdgeStyle;elbow=horizontal;curved=0;rounded=0;" parent="1" edge="1">
          <mxGeometry x="0.0769" relative="1" as="geometry">
            <mxPoint x="715" y="180" as="sourcePoint" />
            <Array as="points">
              <mxPoint x="805" y="180" />
            </Array>
            <mxPoint x="920" y="180" as="targetPoint" />
            <mxPoint as="offset" />
          </mxGeometry>
        </mxCell>
        <mxCell id="d7hmKrcBPxE3zNoRSPeH-38" value="return&lt;div&gt;sort()&lt;/div&gt;" style="html=1;verticalAlign=bottom;endArrow=open;dashed=1;endSize=8;edgeStyle=elbowEdgeStyle;elbow=vertical;curved=0;rounded=0;" parent="1" target="d7hmKrcBPxE3zNoRSPeH-6" edge="1">
          <mxGeometry relative="1" as="geometry">
            <mxPoint x="535" y="234.62" as="targetPoint" />
            <Array as="points">
              <mxPoint x="635" y="234.62" />
            </Array>
            <mxPoint x="710" y="234.62" as="sourcePoint" />
          </mxGeometry>
        </mxCell>
        <mxCell id="d7hmKrcBPxE3zNoRSPeH-40" value="" style="html=1;points=[];perimeter=orthogonalPerimeter;outlineConnect=0;targetShapes=umlLifeline;portConstraint=eastwest;newEdgeStyle={&quot;edgeStyle&quot;:&quot;elbowEdgeStyle&quot;,&quot;elbow&quot;:&quot;vertical&quot;,&quot;curved&quot;:0,&quot;rounded&quot;:0};" parent="1" vertex="1">
          <mxGeometry x="500" y="270" width="10" height="70" as="geometry" />
        </mxCell>
        <mxCell id="d7hmKrcBPxE3zNoRSPeH-41" value="return" style="html=1;verticalAlign=bottom;endArrow=open;dashed=1;endSize=8;edgeStyle=elbowEdgeStyle;elbow=vertical;curved=0;rounded=0;" parent="1" source="d7hmKrcBPxE3zNoRSPeH-39" target="d7hmKrcBPxE3zNoRSPeH-40" edge="1">
          <mxGeometry relative="1" as="geometry">
            <mxPoint x="505" y="320" as="targetPoint" />
            <Array as="points">
              <mxPoint x="625" y="320" />
            </Array>
            <mxPoint x="700" y="320" as="sourcePoint" />
          </mxGeometry>
        </mxCell>
        <mxCell id="d7hmKrcBPxE3zNoRSPeH-42" value="return" style="html=1;verticalAlign=bottom;endArrow=open;dashed=1;endSize=8;edgeStyle=elbowEdgeStyle;elbow=vertical;curved=0;rounded=0;" parent="1" edge="1">
          <mxGeometry relative="1" as="geometry">
            <mxPoint x="330" y="330" as="targetPoint" />
            <Array as="points">
              <mxPoint x="470" y="330" />
              <mxPoint x="435" y="330" />
            </Array>
            <mxPoint x="500" y="330.23" as="sourcePoint" />
          </mxGeometry>
        </mxCell>
        <mxCell id="Qo-ZuOtSjEAEAmFSUaXf-1" value="return" style="html=1;verticalAlign=bottom;endArrow=open;dashed=1;endSize=8;edgeStyle=elbowEdgeStyle;elbow=vertical;curved=0;rounded=0;" parent="1" source="d7hmKrcBPxE3zNoRSPeH-25" edge="1">
          <mxGeometry relative="1" as="geometry">
            <mxPoint x="716" y="210.38" as="targetPoint" />
            <Array as="points" />
            <mxPoint x="916" y="210" as="sourcePoint" />
          </mxGeometry>
        </mxCell>
      </root>
    </mxGraphModel>
  </diagram>
</mxfile>
